G04 #@! TF.GenerationSoftware,KiCad,Pcbnew,(5.0.1-3-g963ef8bb5)*
G04 #@! TF.CreationDate,2018-12-20T15:49:25+01:00*
G04 #@! TF.ProjectId,WifiLedButton,576966694C6564427574746F6E2E6B69,1.0*
G04 #@! TF.SameCoordinates,Original*
G04 #@! TF.FileFunction,Soldermask,Bot*
G04 #@! TF.FilePolarity,Negative*
%FSLAX46Y46*%
G04 Gerber Fmt 4.6, Leading zero omitted, Abs format (unit mm)*
G04 Created by KiCad (PCBNEW (5.0.1-3-g963ef8bb5)) date Donnerstag, 20. Dezember 2018 um 15:49:25*
%MOMM*%
%LPD*%
G01*
G04 APERTURE LIST*
%ADD10C,0.100000*%
G04 APERTURE END LIST*
D10*
G36*
X76366821Y-67741313D02*
X76366824Y-67741314D01*
X76366825Y-67741314D01*
X76527239Y-67789975D01*
X76527241Y-67789976D01*
X76527244Y-67789977D01*
X76675078Y-67868995D01*
X76804659Y-67975341D01*
X76911005Y-68104922D01*
X76990023Y-68252756D01*
X77038687Y-68413179D01*
X77055117Y-68580000D01*
X77038687Y-68746821D01*
X76990023Y-68907244D01*
X76911005Y-69055078D01*
X76804659Y-69184659D01*
X76675078Y-69291005D01*
X76527244Y-69370023D01*
X76527241Y-69370024D01*
X76527239Y-69370025D01*
X76366825Y-69418686D01*
X76366824Y-69418686D01*
X76366821Y-69418687D01*
X76241804Y-69431000D01*
X76158196Y-69431000D01*
X76033179Y-69418687D01*
X76033176Y-69418686D01*
X76033175Y-69418686D01*
X75872761Y-69370025D01*
X75872759Y-69370024D01*
X75872756Y-69370023D01*
X75724922Y-69291005D01*
X75595341Y-69184659D01*
X75488995Y-69055078D01*
X75409977Y-68907244D01*
X75361313Y-68746821D01*
X75344883Y-68580000D01*
X75361313Y-68413179D01*
X75409977Y-68252756D01*
X75488995Y-68104922D01*
X75595341Y-67975341D01*
X75724922Y-67868995D01*
X75872756Y-67789977D01*
X75872759Y-67789976D01*
X75872761Y-67789975D01*
X76033175Y-67741314D01*
X76033176Y-67741314D01*
X76033179Y-67741313D01*
X76158196Y-67729000D01*
X76241804Y-67729000D01*
X76366821Y-67741313D01*
X76366821Y-67741313D01*
G37*
G36*
X71576565Y-64449389D02*
X71767834Y-64528615D01*
X71939976Y-64643637D01*
X72086363Y-64790024D01*
X72201385Y-64962166D01*
X72280611Y-65153435D01*
X72321000Y-65356484D01*
X72321000Y-65563516D01*
X72280611Y-65766565D01*
X72201385Y-65957834D01*
X72086363Y-66129976D01*
X71939976Y-66276363D01*
X71767834Y-66391385D01*
X71576565Y-66470611D01*
X71373516Y-66511000D01*
X71166484Y-66511000D01*
X70963435Y-66470611D01*
X70772166Y-66391385D01*
X70600024Y-66276363D01*
X70453637Y-66129976D01*
X70338615Y-65957834D01*
X70259389Y-65766565D01*
X70219000Y-65563516D01*
X70219000Y-65356484D01*
X70259389Y-65153435D01*
X70338615Y-64962166D01*
X70453637Y-64790024D01*
X70600024Y-64643637D01*
X70772166Y-64528615D01*
X70963435Y-64449389D01*
X71166484Y-64409000D01*
X71373516Y-64409000D01*
X71576565Y-64449389D01*
X71576565Y-64449389D01*
G37*
G36*
X65076565Y-64449389D02*
X65267834Y-64528615D01*
X65439976Y-64643637D01*
X65586363Y-64790024D01*
X65701385Y-64962166D01*
X65780611Y-65153435D01*
X65821000Y-65356484D01*
X65821000Y-65563516D01*
X65780611Y-65766565D01*
X65701385Y-65957834D01*
X65586363Y-66129976D01*
X65439976Y-66276363D01*
X65267834Y-66391385D01*
X65076565Y-66470611D01*
X64873516Y-66511000D01*
X64666484Y-66511000D01*
X64463435Y-66470611D01*
X64272166Y-66391385D01*
X64100024Y-66276363D01*
X63953637Y-66129976D01*
X63838615Y-65957834D01*
X63759389Y-65766565D01*
X63719000Y-65563516D01*
X63719000Y-65356484D01*
X63759389Y-65153435D01*
X63838615Y-64962166D01*
X63953637Y-64790024D01*
X64100024Y-64643637D01*
X64272166Y-64528615D01*
X64463435Y-64449389D01*
X64666484Y-64409000D01*
X64873516Y-64409000D01*
X65076565Y-64449389D01*
X65076565Y-64449389D01*
G37*
G36*
X83651000Y-62061000D02*
X81449000Y-62061000D01*
X81449000Y-59859000D01*
X83651000Y-59859000D01*
X83651000Y-62061000D01*
X83651000Y-62061000D01*
G37*
G36*
X71576565Y-59949389D02*
X71767834Y-60028615D01*
X71939976Y-60143637D01*
X72086363Y-60290024D01*
X72201385Y-60462166D01*
X72280611Y-60653435D01*
X72321000Y-60856484D01*
X72321000Y-61063516D01*
X72280611Y-61266565D01*
X72201385Y-61457834D01*
X72086363Y-61629976D01*
X71939976Y-61776363D01*
X71767834Y-61891385D01*
X71576565Y-61970611D01*
X71373516Y-62011000D01*
X71166484Y-62011000D01*
X70963435Y-61970611D01*
X70772166Y-61891385D01*
X70600024Y-61776363D01*
X70453637Y-61629976D01*
X70338615Y-61457834D01*
X70259389Y-61266565D01*
X70219000Y-61063516D01*
X70219000Y-60856484D01*
X70259389Y-60653435D01*
X70338615Y-60462166D01*
X70453637Y-60290024D01*
X70600024Y-60143637D01*
X70772166Y-60028615D01*
X70963435Y-59949389D01*
X71166484Y-59909000D01*
X71373516Y-59909000D01*
X71576565Y-59949389D01*
X71576565Y-59949389D01*
G37*
G36*
X65076565Y-59949389D02*
X65267834Y-60028615D01*
X65439976Y-60143637D01*
X65586363Y-60290024D01*
X65701385Y-60462166D01*
X65780611Y-60653435D01*
X65821000Y-60856484D01*
X65821000Y-61063516D01*
X65780611Y-61266565D01*
X65701385Y-61457834D01*
X65586363Y-61629976D01*
X65439976Y-61776363D01*
X65267834Y-61891385D01*
X65076565Y-61970611D01*
X64873516Y-62011000D01*
X64666484Y-62011000D01*
X64463435Y-61970611D01*
X64272166Y-61891385D01*
X64100024Y-61776363D01*
X63953637Y-61629976D01*
X63838615Y-61457834D01*
X63759389Y-61266565D01*
X63719000Y-61063516D01*
X63719000Y-60856484D01*
X63759389Y-60653435D01*
X63838615Y-60462166D01*
X63953637Y-60290024D01*
X64100024Y-60143637D01*
X64272166Y-60028615D01*
X64463435Y-59949389D01*
X64666484Y-59909000D01*
X64873516Y-59909000D01*
X65076565Y-59949389D01*
X65076565Y-59949389D01*
G37*
G36*
X61126821Y-60121313D02*
X61126824Y-60121314D01*
X61126825Y-60121314D01*
X61287239Y-60169975D01*
X61287241Y-60169976D01*
X61287244Y-60169977D01*
X61435078Y-60248995D01*
X61564659Y-60355341D01*
X61671005Y-60484922D01*
X61750023Y-60632756D01*
X61798687Y-60793179D01*
X61815117Y-60960000D01*
X61798687Y-61126821D01*
X61750023Y-61287244D01*
X61671005Y-61435078D01*
X61564659Y-61564659D01*
X61435078Y-61671005D01*
X61287244Y-61750023D01*
X61287241Y-61750024D01*
X61287239Y-61750025D01*
X61126825Y-61798686D01*
X61126824Y-61798686D01*
X61126821Y-61798687D01*
X61001804Y-61811000D01*
X60918196Y-61811000D01*
X60793179Y-61798687D01*
X60793176Y-61798686D01*
X60793175Y-61798686D01*
X60632761Y-61750025D01*
X60632759Y-61750024D01*
X60632756Y-61750023D01*
X60484922Y-61671005D01*
X60355341Y-61564659D01*
X60248995Y-61435078D01*
X60169977Y-61287244D01*
X60121313Y-61126821D01*
X60104883Y-60960000D01*
X60121313Y-60793179D01*
X60169977Y-60632756D01*
X60248995Y-60484922D01*
X60355341Y-60355341D01*
X60484922Y-60248995D01*
X60632756Y-60169977D01*
X60632759Y-60169976D01*
X60632761Y-60169975D01*
X60793175Y-60121314D01*
X60793176Y-60121314D01*
X60793179Y-60121313D01*
X60918196Y-60109000D01*
X61001804Y-60109000D01*
X61126821Y-60121313D01*
X61126821Y-60121313D01*
G37*
G36*
X82764795Y-57340156D02*
X82871150Y-57361311D01*
X82941990Y-57390654D01*
X83071516Y-57444305D01*
X83251850Y-57564801D01*
X83405199Y-57718150D01*
X83525695Y-57898484D01*
X83608689Y-58098851D01*
X83651000Y-58311560D01*
X83651000Y-58528440D01*
X83608689Y-58741149D01*
X83525695Y-58941516D01*
X83405199Y-59121850D01*
X83251850Y-59275199D01*
X83071516Y-59395695D01*
X82941990Y-59449346D01*
X82871150Y-59478689D01*
X82764795Y-59499844D01*
X82658440Y-59521000D01*
X82441560Y-59521000D01*
X82335205Y-59499844D01*
X82228850Y-59478689D01*
X82158010Y-59449346D01*
X82028484Y-59395695D01*
X81848150Y-59275199D01*
X81694801Y-59121850D01*
X81574305Y-58941516D01*
X81491311Y-58741149D01*
X81449000Y-58528440D01*
X81449000Y-58311560D01*
X81491311Y-58098851D01*
X81574305Y-57898484D01*
X81694801Y-57718150D01*
X81848150Y-57564801D01*
X82028484Y-57444305D01*
X82158010Y-57390654D01*
X82228850Y-57361311D01*
X82335205Y-57340156D01*
X82441560Y-57319000D01*
X82658440Y-57319000D01*
X82764795Y-57340156D01*
X82764795Y-57340156D01*
G37*
G36*
X76448228Y-57601703D02*
X76603100Y-57665853D01*
X76742481Y-57758985D01*
X76861015Y-57877519D01*
X76954147Y-58016900D01*
X77018297Y-58171772D01*
X77051000Y-58336184D01*
X77051000Y-58503816D01*
X77018297Y-58668228D01*
X76954147Y-58823100D01*
X76861015Y-58962481D01*
X76742481Y-59081015D01*
X76603100Y-59174147D01*
X76448228Y-59238297D01*
X76283816Y-59271000D01*
X76116184Y-59271000D01*
X75951772Y-59238297D01*
X75796900Y-59174147D01*
X75657519Y-59081015D01*
X75538985Y-58962481D01*
X75445853Y-58823100D01*
X75381703Y-58668228D01*
X75349000Y-58503816D01*
X75349000Y-58336184D01*
X75381703Y-58171772D01*
X75445853Y-58016900D01*
X75538985Y-57877519D01*
X75657519Y-57758985D01*
X75796900Y-57665853D01*
X75951772Y-57601703D01*
X76116184Y-57569000D01*
X76283816Y-57569000D01*
X76448228Y-57601703D01*
X76448228Y-57601703D01*
G37*
G36*
X82764794Y-54800155D02*
X82871150Y-54821311D01*
X82941990Y-54850654D01*
X83071516Y-54904305D01*
X83251850Y-55024801D01*
X83405199Y-55178150D01*
X83525695Y-55358484D01*
X83608689Y-55558851D01*
X83651000Y-55771560D01*
X83651000Y-55988440D01*
X83608689Y-56201149D01*
X83525695Y-56401516D01*
X83405199Y-56581850D01*
X83251850Y-56735199D01*
X83071516Y-56855695D01*
X82941990Y-56909346D01*
X82871150Y-56938689D01*
X82764795Y-56959844D01*
X82658440Y-56981000D01*
X82441560Y-56981000D01*
X82335205Y-56959844D01*
X82228850Y-56938689D01*
X82158010Y-56909346D01*
X82028484Y-56855695D01*
X81848150Y-56735199D01*
X81694801Y-56581850D01*
X81574305Y-56401516D01*
X81491311Y-56201149D01*
X81449000Y-55988440D01*
X81449000Y-55771560D01*
X81491311Y-55558851D01*
X81574305Y-55358484D01*
X81694801Y-55178150D01*
X81848150Y-55024801D01*
X82028484Y-54904305D01*
X82158010Y-54850654D01*
X82228850Y-54821311D01*
X82335206Y-54800155D01*
X82441560Y-54779000D01*
X82658440Y-54779000D01*
X82764794Y-54800155D01*
X82764794Y-54800155D01*
G37*
G36*
X82764795Y-52260156D02*
X82871150Y-52281311D01*
X82941990Y-52310654D01*
X83071516Y-52364305D01*
X83071519Y-52364307D01*
X83108475Y-52389000D01*
X83251850Y-52484801D01*
X83405199Y-52638150D01*
X83525695Y-52818484D01*
X83608689Y-53018851D01*
X83651000Y-53231560D01*
X83651000Y-53448440D01*
X83608689Y-53661149D01*
X83525695Y-53861516D01*
X83405199Y-54041850D01*
X83251850Y-54195199D01*
X83251847Y-54195201D01*
X83251846Y-54195202D01*
X83071519Y-54315693D01*
X83071516Y-54315695D01*
X82941990Y-54369346D01*
X82871150Y-54398689D01*
X82764795Y-54419844D01*
X82658440Y-54441000D01*
X82441560Y-54441000D01*
X82335205Y-54419844D01*
X82228850Y-54398689D01*
X82158010Y-54369346D01*
X82028484Y-54315695D01*
X82028481Y-54315693D01*
X81848154Y-54195202D01*
X81848153Y-54195201D01*
X81848150Y-54195199D01*
X81694801Y-54041850D01*
X81574305Y-53861516D01*
X81491311Y-53661149D01*
X81449000Y-53448440D01*
X81449000Y-53231560D01*
X81491311Y-53018851D01*
X81574305Y-52818484D01*
X81694801Y-52638150D01*
X81848150Y-52484801D01*
X81991526Y-52389000D01*
X82028481Y-52364307D01*
X82028484Y-52364305D01*
X82158010Y-52310654D01*
X82228850Y-52281311D01*
X82335205Y-52260156D01*
X82441560Y-52239000D01*
X82658440Y-52239000D01*
X82764795Y-52260156D01*
X82764795Y-52260156D01*
G37*
G36*
X68857396Y-52425546D02*
X69030466Y-52497234D01*
X69186230Y-52601312D01*
X69318688Y-52733770D01*
X69422766Y-52889534D01*
X69494454Y-53062604D01*
X69531000Y-53246333D01*
X69531000Y-53433667D01*
X69494454Y-53617396D01*
X69422766Y-53790466D01*
X69318688Y-53946230D01*
X69186230Y-54078688D01*
X69030466Y-54182766D01*
X68857396Y-54254454D01*
X68673667Y-54291000D01*
X68486333Y-54291000D01*
X68302604Y-54254454D01*
X68129534Y-54182766D01*
X67973770Y-54078688D01*
X67841312Y-53946230D01*
X67737234Y-53790466D01*
X67665546Y-53617396D01*
X67629000Y-53433667D01*
X67629000Y-53246333D01*
X67665546Y-53062604D01*
X67737234Y-52889534D01*
X67841312Y-52733770D01*
X67973770Y-52601312D01*
X68129534Y-52497234D01*
X68302604Y-52425546D01*
X68486333Y-52389000D01*
X68673667Y-52389000D01*
X68857396Y-52425546D01*
X68857396Y-52425546D01*
G37*
G36*
X66991000Y-54291000D02*
X65089000Y-54291000D01*
X65089000Y-52389000D01*
X66991000Y-52389000D01*
X66991000Y-54291000D01*
X66991000Y-54291000D01*
G37*
G36*
X61208228Y-49981703D02*
X61363100Y-50045853D01*
X61502481Y-50138985D01*
X61621015Y-50257519D01*
X61714147Y-50396900D01*
X61778297Y-50551772D01*
X61811000Y-50716184D01*
X61811000Y-50883816D01*
X61778297Y-51048228D01*
X61714147Y-51203100D01*
X61621015Y-51342481D01*
X61502481Y-51461015D01*
X61363100Y-51554147D01*
X61208228Y-51618297D01*
X61043816Y-51651000D01*
X60876184Y-51651000D01*
X60711772Y-51618297D01*
X60556900Y-51554147D01*
X60417519Y-51461015D01*
X60298985Y-51342481D01*
X60205853Y-51203100D01*
X60141703Y-51048228D01*
X60109000Y-50883816D01*
X60109000Y-50716184D01*
X60141703Y-50551772D01*
X60205853Y-50396900D01*
X60298985Y-50257519D01*
X60417519Y-50138985D01*
X60556900Y-50045853D01*
X60711772Y-49981703D01*
X60876184Y-49949000D01*
X61043816Y-49949000D01*
X61208228Y-49981703D01*
X61208228Y-49981703D01*
G37*
M02*
