G04 #@! TF.GenerationSoftware,KiCad,Pcbnew,(5.0.1-3-g963ef8bb5)*
G04 #@! TF.CreationDate,2018-12-20T15:49:25+01:00*
G04 #@! TF.ProjectId,WifiLedButton,576966694C6564427574746F6E2E6B69,1.0*
G04 #@! TF.SameCoordinates,Original*
G04 #@! TF.FileFunction,Legend,Top*
G04 #@! TF.FilePolarity,Positive*
%FSLAX46Y46*%
G04 Gerber Fmt 4.6, Leading zero omitted, Abs format (unit mm)*
G04 Created by KiCad (PCBNEW (5.0.1-3-g963ef8bb5)) date Donnerstag, 20. Dezember 2018 um 15:49:25*
%MOMM*%
%LPD*%
G01*
G04 APERTURE LIST*
%ADD10C,0.120000*%
%ADD11C,0.150000*%
G04 APERTURE END LIST*
D10*
G04 #@! TO.C,D1*
X70300000Y-53340462D02*
G75*
G03X64750000Y-51795170I-2990000J462D01*
G01*
X70300000Y-53339538D02*
G75*
G02X64750000Y-54884830I-2990000J-462D01*
G01*
X69810000Y-53340000D02*
G75*
G03X69810000Y-53340000I-2500000J0D01*
G01*
X64750000Y-51795000D02*
X64750000Y-54885000D01*
G04 #@! TO.C,J1*
X85400000Y-62580000D02*
X85400000Y-51719000D01*
X80300000Y-62580000D02*
X80300000Y-51719000D01*
X79180000Y-62580000D02*
X79180000Y-51719000D01*
X85920000Y-62580000D02*
X85920000Y-51719000D01*
X79180000Y-62580000D02*
X85920000Y-62580000D01*
X79180000Y-51719000D02*
X85920000Y-51719000D01*
X85520000Y-62820000D02*
X86160000Y-62820000D01*
X86160000Y-62820000D02*
X86160000Y-62420000D01*
G04 #@! TO.C,R1*
X76200000Y-67540000D02*
X76200000Y-66770000D01*
X76200000Y-59460000D02*
X76200000Y-60230000D01*
X77570000Y-66770000D02*
X77570000Y-60230000D01*
X74830000Y-66770000D02*
X77570000Y-66770000D01*
X74830000Y-60230000D02*
X74830000Y-66770000D01*
X77570000Y-60230000D02*
X74830000Y-60230000D01*
G04 #@! TO.C,R2*
X62330000Y-52610000D02*
X59590000Y-52610000D01*
X59590000Y-52610000D02*
X59590000Y-59150000D01*
X59590000Y-59150000D02*
X62330000Y-59150000D01*
X62330000Y-59150000D02*
X62330000Y-52610000D01*
X60960000Y-51840000D02*
X60960000Y-52610000D01*
X60960000Y-59920000D02*
X60960000Y-59150000D01*
G04 #@! TO.C,SW1*
X65770000Y-66460000D02*
X70270000Y-66460000D01*
X64520000Y-62460000D02*
X64520000Y-63960000D01*
X70270000Y-59960000D02*
X65770000Y-59960000D01*
X71520000Y-63960000D02*
X71520000Y-62460000D01*
G04 #@! TO.C,D1*
D11*
X66571904Y-49832380D02*
X66571904Y-48832380D01*
X66810000Y-48832380D01*
X66952857Y-48880000D01*
X67048095Y-48975238D01*
X67095714Y-49070476D01*
X67143333Y-49260952D01*
X67143333Y-49403809D01*
X67095714Y-49594285D01*
X67048095Y-49689523D01*
X66952857Y-49784761D01*
X66810000Y-49832380D01*
X66571904Y-49832380D01*
X68095714Y-49832380D02*
X67524285Y-49832380D01*
X67810000Y-49832380D02*
X67810000Y-48832380D01*
X67714761Y-48975238D01*
X67619523Y-49070476D01*
X67524285Y-49118095D01*
G04 #@! TO.C,J1*
X77632380Y-57483333D02*
X78346666Y-57483333D01*
X78489523Y-57530952D01*
X78584761Y-57626190D01*
X78632380Y-57769047D01*
X78632380Y-57864285D01*
X78632380Y-56483333D02*
X78632380Y-57054761D01*
X78632380Y-56769047D02*
X77632380Y-56769047D01*
X77775238Y-56864285D01*
X77870476Y-56959523D01*
X77918095Y-57054761D01*
G04 #@! TO.C,R1*
X79022380Y-63666666D02*
X78546190Y-64000000D01*
X79022380Y-64238095D02*
X78022380Y-64238095D01*
X78022380Y-63857142D01*
X78070000Y-63761904D01*
X78117619Y-63714285D01*
X78212857Y-63666666D01*
X78355714Y-63666666D01*
X78450952Y-63714285D01*
X78498571Y-63761904D01*
X78546190Y-63857142D01*
X78546190Y-64238095D01*
X79022380Y-62714285D02*
X79022380Y-63285714D01*
X79022380Y-63000000D02*
X78022380Y-63000000D01*
X78165238Y-63095238D01*
X78260476Y-63190476D01*
X78308095Y-63285714D01*
G04 #@! TO.C,R2*
X63782380Y-56046666D02*
X63306190Y-56380000D01*
X63782380Y-56618095D02*
X62782380Y-56618095D01*
X62782380Y-56237142D01*
X62830000Y-56141904D01*
X62877619Y-56094285D01*
X62972857Y-56046666D01*
X63115714Y-56046666D01*
X63210952Y-56094285D01*
X63258571Y-56141904D01*
X63306190Y-56237142D01*
X63306190Y-56618095D01*
X62877619Y-55665714D02*
X62830000Y-55618095D01*
X62782380Y-55522857D01*
X62782380Y-55284761D01*
X62830000Y-55189523D01*
X62877619Y-55141904D01*
X62972857Y-55094285D01*
X63068095Y-55094285D01*
X63210952Y-55141904D01*
X63782380Y-55713333D01*
X63782380Y-55094285D01*
G04 #@! TO.C,SW1*
X67246666Y-58824761D02*
X67389523Y-58872380D01*
X67627619Y-58872380D01*
X67722857Y-58824761D01*
X67770476Y-58777142D01*
X67818095Y-58681904D01*
X67818095Y-58586666D01*
X67770476Y-58491428D01*
X67722857Y-58443809D01*
X67627619Y-58396190D01*
X67437142Y-58348571D01*
X67341904Y-58300952D01*
X67294285Y-58253333D01*
X67246666Y-58158095D01*
X67246666Y-58062857D01*
X67294285Y-57967619D01*
X67341904Y-57920000D01*
X67437142Y-57872380D01*
X67675238Y-57872380D01*
X67818095Y-57920000D01*
X68151428Y-57872380D02*
X68389523Y-58872380D01*
X68580000Y-58158095D01*
X68770476Y-58872380D01*
X69008571Y-57872380D01*
X69913333Y-58872380D02*
X69341904Y-58872380D01*
X69627619Y-58872380D02*
X69627619Y-57872380D01*
X69532380Y-58015238D01*
X69437142Y-58110476D01*
X69341904Y-58158095D01*
G04 #@! TD*
M02*
