G04 #@! TF.GenerationSoftware,KiCad,Pcbnew,(5.0.1-3-g963ef8bb5)*
G04 #@! TF.CreationDate,2018-12-14T14:37:57+01:00*
G04 #@! TF.ProjectId,WifiDoorBell-D1-mini,57696669446F6F7242656C6C2D44312D,1*
G04 #@! TF.SameCoordinates,Original*
G04 #@! TF.FileFunction,Copper,L2,Bot,Signal*
G04 #@! TF.FilePolarity,Positive*
%FSLAX46Y46*%
G04 Gerber Fmt 4.6, Leading zero omitted, Abs format (unit mm)*
G04 Created by KiCad (PCBNEW (5.0.1-3-g963ef8bb5)) date Freitag, 14. Dezember 2018 um 14:37:57*
%MOMM*%
%LPD*%
G01*
G04 APERTURE LIST*
G04 #@! TA.AperFunction,ComponentPad*
%ADD10R,1.800000X1.800000*%
G04 #@! TD*
G04 #@! TA.AperFunction,ComponentPad*
%ADD11O,1.800000X1.800000*%
G04 #@! TD*
G04 #@! TA.AperFunction,ComponentPad*
%ADD12R,1.600000X1.600000*%
G04 #@! TD*
G04 #@! TA.AperFunction,ComponentPad*
%ADD13C,1.600000*%
G04 #@! TD*
G04 #@! TA.AperFunction,ComponentPad*
%ADD14O,2.000000X2.000000*%
G04 #@! TD*
G04 #@! TA.AperFunction,ComponentPad*
%ADD15R,2.000000X2.000000*%
G04 #@! TD*
G04 #@! TA.AperFunction,ComponentPad*
%ADD16O,1.400000X1.400000*%
G04 #@! TD*
G04 #@! TA.AperFunction,ComponentPad*
%ADD17C,1.400000*%
G04 #@! TD*
G04 #@! TA.AperFunction,ComponentPad*
%ADD18R,2.000000X1.905000*%
G04 #@! TD*
G04 #@! TA.AperFunction,ComponentPad*
%ADD19O,2.000000X1.905000*%
G04 #@! TD*
G04 #@! TA.AperFunction,ComponentPad*
%ADD20O,1.600000X1.600000*%
G04 #@! TD*
G04 #@! TA.AperFunction,ComponentPad*
%ADD21R,2.100000X2.100000*%
G04 #@! TD*
G04 #@! TA.AperFunction,ComponentPad*
%ADD22C,2.100000*%
G04 #@! TD*
G04 #@! TA.AperFunction,Conductor*
%ADD23C,0.500000*%
G04 #@! TD*
G04 APERTURE END LIST*
D10*
G04 #@! TO.P,P2,1*
G04 #@! TO.N,/+3.3V*
X119380000Y-96520000D03*
D11*
G04 #@! TO.P,P2,2*
G04 #@! TO.N,/D8*
X116840000Y-96520000D03*
G04 #@! TO.P,P2,3*
G04 #@! TO.N,/D7*
X114300000Y-96520000D03*
G04 #@! TO.P,P2,4*
G04 #@! TO.N,/D6*
X111760000Y-96520000D03*
G04 #@! TO.P,P2,5*
G04 #@! TO.N,/D5*
X109220000Y-96520000D03*
G04 #@! TO.P,P2,6*
G04 #@! TO.N,/D0*
X106680000Y-96520000D03*
G04 #@! TO.P,P2,7*
G04 #@! TO.N,/A0*
X104140000Y-96520000D03*
G04 #@! TO.P,P2,8*
G04 #@! TO.N,/RST*
X101600000Y-96520000D03*
G04 #@! TD*
D12*
G04 #@! TO.P,C1,1*
G04 #@! TO.N,Net-(C1-Pad1)*
X99060000Y-81280000D03*
D13*
G04 #@! TO.P,C1,2*
G04 #@! TO.N,GND*
X99060000Y-83780000D03*
G04 #@! TD*
G04 #@! TO.P,C2,1*
G04 #@! TO.N,Net-(C1-Pad1)*
X91440000Y-81280000D03*
G04 #@! TO.P,C2,2*
G04 #@! TO.N,GND*
X91440000Y-88780000D03*
G04 #@! TD*
G04 #@! TO.P,C4,2*
G04 #@! TO.N,GND*
X119380000Y-86320000D03*
D12*
G04 #@! TO.P,C4,1*
G04 #@! TO.N,/+5V*
X119380000Y-83820000D03*
G04 #@! TD*
D14*
G04 #@! TO.P,D1,4*
G04 #@! TO.N,/Doorbell-Trafo-B*
X81280000Y-86280000D03*
G04 #@! TO.P,D1,2*
G04 #@! TO.N,/Doorbell-Trafo-A*
X76280000Y-81280000D03*
G04 #@! TO.P,D1,3*
G04 #@! TO.N,GND*
X76280000Y-86280000D03*
D15*
G04 #@! TO.P,D1,1*
G04 #@! TO.N,Net-(C1-Pad1)*
X81280000Y-81280000D03*
G04 #@! TD*
D16*
G04 #@! TO.P,R1,2*
G04 #@! TO.N,/Doorbell-Trafo-B*
X71120000Y-96520000D03*
D17*
G04 #@! TO.P,R1,1*
G04 #@! TO.N,Net-(R1-Pad1)*
X73660000Y-96520000D03*
G04 #@! TD*
G04 #@! TO.P,R2,1*
G04 #@! TO.N,/Doorbell-Button*
X71120000Y-99060000D03*
D16*
G04 #@! TO.P,R2,2*
G04 #@! TO.N,Net-(R2-Pad2)*
X73660000Y-99060000D03*
G04 #@! TD*
D17*
G04 #@! TO.P,R3,1*
G04 #@! TO.N,Net-(R3-Pad1)*
X104140000Y-86360000D03*
D16*
G04 #@! TO.P,R3,2*
G04 #@! TO.N,GND*
X104140000Y-88900000D03*
G04 #@! TD*
G04 #@! TO.P,R4,2*
G04 #@! TO.N,Net-(R3-Pad1)*
X114300000Y-86360000D03*
D17*
G04 #@! TO.P,R4,1*
G04 #@! TO.N,/+5V*
X114300000Y-83820000D03*
G04 #@! TD*
G04 #@! TO.P,R5,1*
G04 #@! TO.N,/+3.3V*
X88900000Y-96520000D03*
D16*
G04 #@! TO.P,R5,2*
G04 #@! TO.N,/D1*
X86360000Y-96520000D03*
G04 #@! TD*
D18*
G04 #@! TO.P,U1,1*
G04 #@! TO.N,Net-(R3-Pad1)*
X109220000Y-86360000D03*
D19*
G04 #@! TO.P,U1,2*
G04 #@! TO.N,/+5V*
X109220000Y-83820000D03*
G04 #@! TO.P,U1,3*
G04 #@! TO.N,Net-(C1-Pad1)*
X109220000Y-81280000D03*
G04 #@! TD*
D12*
G04 #@! TO.P,U2,1*
G04 #@! TO.N,Net-(R1-Pad1)*
X76200000Y-96520000D03*
D20*
G04 #@! TO.P,U2,5*
G04 #@! TO.N,GND*
X83820000Y-104140000D03*
G04 #@! TO.P,U2,2*
G04 #@! TO.N,Net-(R2-Pad2)*
X76200000Y-99060000D03*
G04 #@! TO.P,U2,6*
G04 #@! TO.N,/D1*
X83820000Y-101600000D03*
G04 #@! TO.P,U2,3*
G04 #@! TO.N,Net-(R2-Pad2)*
X76200000Y-101600000D03*
G04 #@! TO.P,U2,7*
G04 #@! TO.N,GND*
X83820000Y-99060000D03*
G04 #@! TO.P,U2,4*
G04 #@! TO.N,Net-(R1-Pad1)*
X76200000Y-104140000D03*
G04 #@! TO.P,U2,8*
G04 #@! TO.N,/D1*
X83820000Y-96520000D03*
G04 #@! TD*
D10*
G04 #@! TO.P,P1,1*
G04 #@! TO.N,/+5V*
X119380000Y-119130696D03*
D11*
G04 #@! TO.P,P1,2*
G04 #@! TO.N,GND*
X116840000Y-119130696D03*
G04 #@! TO.P,P1,3*
G04 #@! TO.N,/D4*
X114300000Y-119130696D03*
G04 #@! TO.P,P1,4*
G04 #@! TO.N,/D3*
X111760000Y-119130696D03*
G04 #@! TO.P,P1,5*
G04 #@! TO.N,/D2*
X109220000Y-119130696D03*
G04 #@! TO.P,P1,6*
G04 #@! TO.N,/D1*
X106680000Y-119130696D03*
G04 #@! TO.P,P1,7*
G04 #@! TO.N,/RX*
X104140000Y-119130696D03*
G04 #@! TO.P,P1,8*
G04 #@! TO.N,/TX*
X101600000Y-119130696D03*
G04 #@! TD*
D21*
G04 #@! TO.P,J1,1*
G04 #@! TO.N,/Doorbell-Trafo-A*
X63500000Y-81280000D03*
D22*
G04 #@! TO.P,J1,2*
G04 #@! TO.N,/Doorbell-Trafo-B*
X63500000Y-83820000D03*
G04 #@! TO.P,J1,3*
G04 #@! TO.N,/Doorbell-Button*
X63500000Y-86360000D03*
G04 #@! TD*
D21*
G04 #@! TO.P,J2,1*
G04 #@! TO.N,GND*
X63500000Y-106680000D03*
D22*
G04 #@! TO.P,J2,2*
G04 #@! TO.N,/+3.3V*
X63500000Y-109220000D03*
G04 #@! TO.P,J2,3*
G04 #@! TO.N,/D7*
X63500000Y-111760000D03*
G04 #@! TO.P,J2,4*
G04 #@! TO.N,/D4*
X63500000Y-114300000D03*
G04 #@! TD*
D23*
G04 #@! TO.N,/+5V*
X109220000Y-83820000D02*
X124460000Y-83820000D01*
X124460000Y-83820000D02*
X124460000Y-111760000D01*
X124460000Y-111760000D02*
X119380000Y-111760000D01*
X119380000Y-111760000D02*
X119380000Y-119130696D01*
G04 #@! TO.N,/D1*
X83820000Y-96520000D02*
X86360000Y-96520000D01*
X86360000Y-96520000D02*
X86360000Y-114300000D01*
X86360000Y-114300000D02*
X106680000Y-114300000D01*
X106680000Y-114300000D02*
X106680000Y-119130696D01*
X83820000Y-101600000D02*
X86360000Y-101600000D01*
G04 #@! TO.N,/+3.3V*
X88900000Y-96520000D02*
X88900000Y-101600000D01*
X88900000Y-101600000D02*
X119380000Y-101600000D01*
X119380000Y-101600000D02*
X119380000Y-96520000D01*
G04 #@! TO.N,Net-(C1-Pad1)*
X81280000Y-81280000D02*
X109220000Y-81280000D01*
G04 #@! TO.N,GND*
X76280000Y-86280000D02*
X76280000Y-91360000D01*
X76280000Y-91360000D02*
X76360000Y-91440000D01*
X76360000Y-91440000D02*
X121920000Y-91440000D01*
X121920000Y-91440000D02*
X121920000Y-105410000D01*
X121920000Y-105410000D02*
X116840000Y-105410000D01*
X116840000Y-105410000D02*
X116840000Y-119130696D01*
X81280000Y-104140000D02*
X83820000Y-104140000D01*
X81280000Y-91440000D02*
X81280000Y-104140000D01*
X81280000Y-99060000D02*
X83820000Y-99060000D01*
X91440000Y-88780000D02*
X91440000Y-91400000D01*
X99060000Y-83780000D02*
X99060000Y-91440000D01*
X99060000Y-91440000D02*
X101600000Y-91440000D01*
X104140000Y-88900000D02*
X104140000Y-91440000D01*
X119380000Y-86320000D02*
X119380000Y-91440000D01*
X73660000Y-106680000D02*
X81280000Y-106680000D01*
X81280000Y-106680000D02*
X81280000Y-104140000D01*
X73660000Y-106680000D02*
X63500000Y-106680000D01*
G04 #@! TO.N,/Doorbell-Trafo-A*
X63500000Y-81280000D02*
X76280000Y-81280000D01*
G04 #@! TO.N,/Doorbell-Trafo-B*
X78820000Y-83820000D02*
X81280000Y-86280000D01*
X71120000Y-83820000D02*
X78820000Y-83820000D01*
X71120000Y-86360000D02*
X71120000Y-96520000D01*
X71120000Y-86360000D02*
X71120000Y-83820000D01*
X63500000Y-83820000D02*
X71120000Y-83820000D01*
G04 #@! TO.N,/Doorbell-Button*
X63500000Y-91440000D02*
X63500000Y-99060000D01*
X63500000Y-99060000D02*
X71120000Y-99060000D01*
X63500000Y-91440000D02*
X63500000Y-86360000D01*
G04 #@! TO.N,Net-(R1-Pad1)*
X73660000Y-96520000D02*
X76200000Y-96520000D01*
X76200000Y-96520000D02*
X78740000Y-96520000D01*
X78740000Y-96520000D02*
X78740000Y-104140000D01*
X78740000Y-104140000D02*
X76200000Y-104140000D01*
G04 #@! TO.N,Net-(R2-Pad2)*
X73660000Y-99060000D02*
X76200000Y-99060000D01*
X76200000Y-99060000D02*
X76200000Y-101600000D01*
G04 #@! TO.N,Net-(R3-Pad1)*
X104140000Y-86360000D02*
X114300000Y-86360000D01*
G04 #@! TD*
M02*
