M48
;DRILL file {KiCad (5.0.1-3-g963ef8bb5)} date Freitag, 14. Dezember 2018 um 14:38:24
;FORMAT={-:-/ absolute / inch / decimal}
FMAT,2
INCH,TZ
T1C0.0276
T2C0.0315
T3C0.0394
T4C0.0400
T5C0.0433
%
G90
G05
M72
T1
X4.5Y-3.3
X4.5Y-3.4
X3.4Y-3.8
X3.5Y-3.8
X4.1Y-3.4
X4.1Y-3.5
X2.8Y-3.9
X2.9Y-3.9
X2.8Y-3.8
X2.9Y-3.8
T2
X3.6Y-3.2
X3.6Y-3.4953
X4.7Y-3.3
X4.7Y-3.3984
X3.Y-3.8
X3.Y-3.9
X3.Y-4.
X3.Y-4.1
X3.3Y-3.8
X3.3Y-3.9
X3.3Y-4.
X3.3Y-4.1
X3.9Y-3.2
X3.9Y-3.2984
T3
X3.0031Y-3.2
X3.0031Y-3.3969
X3.2Y-3.2
X3.2Y-3.3969
T4
X4.Y-3.8
X4.1Y-3.8
X4.2Y-3.8
X4.3Y-3.8
X4.4Y-3.8
X4.5Y-3.8
X4.6Y-3.8
X4.7Y-3.8
X4.Y-4.6902
X4.1Y-4.6902
X4.2Y-4.6902
X4.3Y-4.6902
X4.4Y-4.6902
X4.5Y-4.6902
X4.6Y-4.6902
X4.7Y-4.6902
T5
X2.5Y-3.2
X2.5Y-3.3
X2.5Y-3.4
X2.5Y-4.2
X2.5Y-4.3
X2.5Y-4.4
X2.5Y-4.5
X4.3Y-3.2
X4.3Y-3.3
X4.3Y-3.4
T0
M30
