G04 #@! TF.GenerationSoftware,KiCad,Pcbnew,(5.0.1-3-g963ef8bb5)*
G04 #@! TF.CreationDate,2018-12-14T14:37:57+01:00*
G04 #@! TF.ProjectId,WifiDoorBell-D1-mini,57696669446F6F7242656C6C2D44312D,1*
G04 #@! TF.SameCoordinates,Original*
G04 #@! TF.FileFunction,Other,User*
%FSLAX46Y46*%
G04 Gerber Fmt 4.6, Leading zero omitted, Abs format (unit mm)*
G04 Created by KiCad (PCBNEW (5.0.1-3-g963ef8bb5)) date Freitag, 14. Dezember 2018 um 14:37:57*
%MOMM*%
%LPD*%
G01*
G04 APERTURE LIST*
%ADD10C,0.050000*%
G04 APERTURE END LIST*
D10*
G04 #@! TO.C,P2*
X121130000Y-94770000D02*
X99830000Y-94770000D01*
X121130000Y-98270000D02*
X99830000Y-98270000D01*
X121130000Y-94770000D02*
X121130000Y-98270000D01*
X99830000Y-94770000D02*
X99830000Y-98270000D01*
G04 #@! TO.C,C1*
X101810000Y-82530000D02*
G75*
G03X101810000Y-82530000I-2750000J0D01*
G01*
G04 #@! TO.C,C2*
X92940000Y-80230000D02*
X89940000Y-80230000D01*
X89940000Y-80230000D02*
X89940000Y-89830000D01*
X89940000Y-89830000D02*
X92940000Y-89830000D01*
X92940000Y-89830000D02*
X92940000Y-80230000D01*
G04 #@! TO.C,C4*
X122130000Y-85070000D02*
G75*
G03X122130000Y-85070000I-2750000J0D01*
G01*
G04 #@! TO.C,D1*
X84083772Y-83780000D02*
G75*
G03X84083772Y-83780000I-5303772J0D01*
G01*
G04 #@! TO.C,R1*
X70170000Y-97570000D02*
X74710000Y-97570000D01*
X70170000Y-95470000D02*
X70170000Y-97570000D01*
X74710000Y-95470000D02*
X70170000Y-95470000D01*
X74710000Y-97570000D02*
X74710000Y-95470000D01*
G04 #@! TO.C,R2*
X70070000Y-98010000D02*
X70070000Y-100110000D01*
X70070000Y-100110000D02*
X74610000Y-100110000D01*
X74610000Y-100110000D02*
X74610000Y-98010000D01*
X74610000Y-98010000D02*
X70070000Y-98010000D01*
G04 #@! TO.C,R3*
X105190000Y-85310000D02*
X103090000Y-85310000D01*
X103090000Y-85310000D02*
X103090000Y-89850000D01*
X103090000Y-89850000D02*
X105190000Y-89850000D01*
X105190000Y-89850000D02*
X105190000Y-85310000D01*
G04 #@! TO.C,R4*
X115350000Y-87310000D02*
X115350000Y-82770000D01*
X113250000Y-87310000D02*
X115350000Y-87310000D01*
X113250000Y-82770000D02*
X113250000Y-87310000D01*
X115350000Y-82770000D02*
X113250000Y-82770000D01*
G04 #@! TO.C,R5*
X89950000Y-97570000D02*
X89950000Y-95470000D01*
X89950000Y-95470000D02*
X85410000Y-95470000D01*
X85410000Y-95470000D02*
X85410000Y-97570000D01*
X85410000Y-97570000D02*
X89950000Y-97570000D01*
G04 #@! TO.C,U1*
X105820000Y-89070000D02*
X110730000Y-89070000D01*
X110730000Y-89070000D02*
X110730000Y-78570000D01*
X110730000Y-78570000D02*
X105820000Y-78570000D01*
X105820000Y-78570000D02*
X105820000Y-89070000D01*
G04 #@! TO.C,U2*
X75100000Y-94970000D02*
X75100000Y-105670000D01*
X75100000Y-105670000D02*
X84900000Y-105670000D01*
X84900000Y-105670000D02*
X84900000Y-94970000D01*
X84900000Y-94970000D02*
X75100000Y-94970000D01*
G04 #@! TO.C,P1*
X121130000Y-117380696D02*
X99830000Y-117380696D01*
X121130000Y-120880696D02*
X99830000Y-120880696D01*
X121130000Y-117380696D02*
X121130000Y-120880696D01*
X99830000Y-117380696D02*
X99830000Y-120880696D01*
G04 #@! TO.C,J1*
X67250000Y-79280000D02*
X59750000Y-79280000D01*
X59750000Y-79280000D02*
X59750000Y-88360000D01*
X59750000Y-88360000D02*
X67250000Y-88360000D01*
X67250000Y-88360000D02*
X67250000Y-79280000D01*
G04 #@! TO.C,J2*
X67250000Y-104680000D02*
X59750000Y-104680000D01*
X59750000Y-104680000D02*
X59750000Y-116310000D01*
X59750000Y-116310000D02*
X67250000Y-116310000D01*
X67250000Y-116310000D02*
X67250000Y-104680000D01*
G04 #@! TD*
M02*
